<?xml version="1.0" standalone="no"?>
<!DOCTYPE svg PUBLIC "-//W3C//DTD SVG 20010904//EN"
 "http://www.w3.org/TR/2001/REC-SVG-20010904/DTD/svg10.dtd">
<svg version="1.0" xmlns="http://www.w3.org/2000/svg"
 width="1200.000000pt" height="1200.000000pt" viewBox="0 0 1200.000000 1200.000000"
 preserveAspectRatio="xMidYMid meet">
<metadata>
Created by potrace 1.14, written by Peter Selinger 2001-2017
</metadata>
<g transform="translate(0.000000,1200.000000) scale(0.100000,-0.100000)"
fill="#000000" stroke="none">
<path d="M7323 7209 c-70 -27 -144 -96 -179 -166 -25 -50 -29 -69 -29 -143 0
-102 27 -170 95 -237 69 -69 119 -88 230 -88 87 0 100 3 149 30 95 52 161 159
161 259 l0 56 -144 0 -144 0 -11 -31 c-6 -18 -11 -36 -11 -40 0 -5 50 -9 111
-9 l112 0 -6 -37 c-20 -122 -204 -191 -334 -125 -83 43 -123 115 -123 222 0
140 84 237 214 247 80 7 132 -8 184 -52 40 -35 42 -36 67 -19 14 9 25 24 23
33 -5 22 -96 88 -147 106 -61 21 -155 18 -218 -6z"/>
<path d="M6525 7207 c-3 -7 -4 -149 -3 -317 l3 -305 43 -3 42 -3 0 320 0 321
-40 0 c-24 0 -43 -5 -45 -13z"/>
<path d="M6876 7188 c-14 -18 -66 -87 -115 -152 l-90 -120 37 -51 c20 -28 75
-104 122 -168 l85 -116 43 -1 c23 0 42 3 42 6 0 3 -54 77 -120 164 -66 88
-120 162 -120 165 0 6 181 244 218 288 14 16 12 17 -31 17 -40 0 -49 -4 -71
-32z"/>
<path d="M7880 6900 l0 -320 45 0 45 0 0 145 0 145 100 0 100 0 0 35 0 35
-100 0 -100 0 0 100 0 99 123 3 122 3 0 35 0 35 -167 3 -168 2 0 -320z"/>
<path d="M959 6760 c0 -247 0 -477 0 -510 0 -33 0 -229 0 -435 l1 -375 330 0
330 0 2 -332 3 -333 2213 -3 2212 -2 0 555 0 555 -1330 0 -1330 0 0 115 0 115
1330 0 1330 0 0 220 0 220 -1545 0 -1545 0 0 -555 0 -555 1330 0 1330 0 0
-115 0 -115 -1782 0 -1783 0 0 115 0 115 333 0 332 0 -2 553 -3 552 -545 0
-545 0 -3 -332 -2 -333 -93 0 c-50 0 -102 -3 -114 -6 l-23 -6 0 456 0 456
2330 0 2330 0 0 215 0 215 -2545 0 -2545 0 -1 -450z m1326 -767 l1 -113 -113
0 -113 0 0 115 0 116 113 -3 112 -3 0 -112z"/>
<path d="M6750 6311 c-83 -27 -168 -99 -208 -176 -24 -44 -27 -62 -27 -145 0
-85 3 -101 28 -148 58 -111 148 -171 268 -180 106 -7 169 16 244 91 67 68 95
131 95 213 l0 45 -147 -3 -146 -3 -13 -37 -13 -38 115 0 c112 0 114 0 114 -23
0 -42 -54 -112 -106 -138 -66 -32 -171 -33 -230 -2 -51 27 -98 80 -115 130
-18 54 -17 140 4 195 22 57 90 122 143 137 91 25 194 3 255 -55 26 -25 28 -25
53 -9 33 22 33 28 -6 65 -58 56 -124 83 -208 86 -41 2 -86 0 -100 -5z"/>
<path d="M7464 6300 c-68 -27 -126 -79 -166 -148 -32 -55 -33 -61 -33 -162 0
-97 2 -109 29 -158 34 -60 85 -111 148 -144 37 -20 58 -23 143 -23 116 0 165
18 235 87 66 63 95 136 94 238 0 72 -4 94 -27 142 -33 68 -84 120 -152 156
-69 36 -197 41 -271 12z m241 -88 c88 -45 125 -112 125 -224 0 -90 -22 -141
-79 -190 -110 -94 -296 -70 -371 48 -90 142 -19 346 134 385 50 13 148 4 191
-19z"/>
<path d="M9455 6301 c-45 -27 -65 -54 -72 -95 -7 -44 18 -114 52 -146 14 -13
25 -29 25 -36 0 -7 -20 -27 -44 -44 -58 -39 -88 -82 -93 -134 -7 -57 24 -117
79 -153 38 -25 50 -28 132 -28 81 0 97 3 150 30 l58 29 24 -27 c18 -21 32 -27
66 -27 l42 0 -42 43 c-23 23 -42 48 -42 54 0 7 9 27 19 45 11 18 23 50 26 71
7 37 7 37 -27 37 -31 0 -36 -4 -44 -31 -5 -18 -17 -37 -27 -43 -15 -9 -29 0
-92 69 -69 74 -88 105 -66 105 15 0 101 82 116 111 31 59 6 130 -57 169 -44
27 -141 27 -183 1z m155 -71 c34 -34 27 -83 -21 -131 -26 -26 -47 -39 -61 -37
-51 7 -86 114 -54 163 14 21 24 25 66 25 37 0 55 -5 70 -20z m-9 -351 c41 -44
75 -86 77 -94 10 -43 -176 -69 -232 -32 -58 39 -58 118 1 173 54 51 70 46 154
-47z"/>
<path d="M8040 5990 l0 -320 170 0 170 0 0 40 0 40 -130 0 -130 0 0 280 0 280
-40 0 -40 0 0 -320z"/>
<path d="M8490 5989 l0 -320 163 3 c154 3 165 4 219 31 98 48 146 129 156 264
8 119 -26 205 -107 275 -64 55 -120 68 -287 68 l-144 0 0 -321z m318 225 c43
-18 88 -58 108 -96 38 -72 25 -228 -24 -291 -43 -56 -82 -70 -204 -75 l-108
-4 0 241 0 241 95 0 c64 0 108 -5 133 -16z"/>
<path d="M9066 5391 c-139 -56 -216 -168 -216 -313 0 -91 26 -162 83 -224 106
-117 268 -143 410 -66 60 32 102 79 136 152 21 46 26 69 25 140 0 72 -4 94
-27 141 -32 67 -99 132 -165 162 -68 30 -182 33 -246 8z m184 -74 c46 -9 124
-71 135 -107 3 -11 10 -20 14 -20 11 0 13 -23 13 -115 -1 -93 -2 -105 -14
-105 -5 0 -7 -4 -4 -9 3 -4 -3 -16 -14 -26 -11 -10 -17 -23 -13 -29 3 -6 3 -8
-1 -4 -5 4 -18 -3 -30 -16 -43 -45 -148 -67 -225 -46 -52 14 -121 57 -121 76
0 8 -4 14 -8 14 -9 0 -32 42 -39 70 -19 74 6 213 41 232 9 5 14 13 11 19 -4 5
1 9 9 9 9 0 16 4 16 8 0 10 41 31 90 47 31 10 95 11 140 2z"/>
<path d="M11045 5398 c-73 -26 -115 -82 -115 -153 0 -78 45 -122 180 -180 107
-45 140 -78 140 -141 0 -69 -30 -94 -112 -94 -76 0 -105 14 -137 62 -22 35
-24 36 -54 23 -17 -7 -33 -17 -35 -23 -6 -19 65 -97 111 -121 102 -52 232 -22
288 67 72 115 1 229 -185 298 -100 37 -142 109 -97 165 17 21 27 24 95 24 69
0 78 -2 103 -27 26 -26 27 -27 55 -10 15 9 28 19 28 23 0 14 -58 63 -95 80
-44 20 -123 24 -170 7z"/>
<path d="M6528 5394 c-5 -4 -8 -148 -8 -321 l0 -313 155 0 c187 0 239 15 304
85 48 52 64 88 80 177 9 52 8 79 -2 131 -22 104 -69 166 -162 215 -47 24 -61
26 -205 30 -85 2 -158 0 -162 -4z m303 -86 c57 -16 112 -73 131 -133 25 -81 6
-230 -35 -268 -62 -58 -68 -59 -209 -64 l-108 -4 0 240 0 241 91 0 c51 0 109
-5 130 -12z"/>
<path d="M7217 5393 c-4 -3 -7 -147 -7 -320 l0 -313 45 0 45 0 0 320 0 320
-38 0 c-21 0 -42 -3 -45 -7z"/>
<path d="M7611 5278 c-23 -68 -73 -212 -110 -320 l-68 -198 42 0 42 0 20 63
20 62 148 0 149 0 20 -62 20 -63 42 0 41 0 -23 68 c-12 37 -53 155 -89 262
-37 107 -76 221 -87 253 l-21 57 -52 0 -53 0 -41 -122z m115 -15 c4 -16 8 -31
9 -35 2 -5 4 -10 5 -13 1 -3 4 -9 5 -15 1 -5 4 -12 5 -15 1 -3 3 -8 5 -12 1
-5 5 -17 9 -28 29 -76 35 -95 30 -95 -4 0 -2 -6 4 -12 5 -7 13 -28 17 -46 l7
-33 -114 3 c-130 3 -124 -4 -89 103 8 22 16 45 20 50 3 6 6 13 7 18 1 4 3 9 4
12 1 3 3 8 4 13 15 60 43 132 52 132 7 0 15 -12 20 -27z"/>
<path d="M8090 5080 l0 -320 40 0 40 0 0 220 c0 189 2 220 15 220 8 0 15 -5
15 -10 0 -6 16 -55 36 -108 19 -53 46 -126 59 -162 13 -36 31 -86 40 -112 l18
-48 52 0 53 0 20 53 c12 28 47 125 79 214 33 92 63 163 71 163 9 0 12 -50 12
-215 l0 -215 45 0 45 0 0 320 0 321 -57 -3 -57 -3 -21 -55 c-12 -30 -57 -153
-100 -272 -42 -120 -83 -218 -89 -218 -6 0 -20 24 -30 53 -10 28 -54 152 -98
275 l-81 222 -53 0 -54 0 0 -320z"/>
<path d="M9630 5081 l0 -321 45 0 45 0 0 235 c0 192 3 235 14 235 7 0 76 -106
152 -235 l138 -235 53 0 53 0 0 320 0 320 -45 0 -45 0 0 -240 c0 -281 -1 -285
-70 -166 -15 27 -69 118 -207 351 -29 49 -31 50 -81 53 l-52 3 0 -320z"/>
<path d="M10268 5394 c-5 -4 -8 -149 -8 -321 l0 -315 173 4 c166 3 174 4 218
30 99 58 151 157 152 288 0 102 -28 173 -92 233 -77 72 -103 80 -281 85 -85 2
-158 0 -162 -4z m310 -93 c12 -6 22 -9 22 -6 0 4 7 -1 15 -9 9 -9 24 -21 34
-28 10 -7 26 -29 37 -48 24 -47 30 -193 8 -234 -8 -16 -12 -31 -10 -34 11 -11
-67 -75 -106 -87 -59 -17 -218 -20 -219 -3 -3 35 -5 454 -2 460 5 11 197 2
221 -11z"/>
<path d="M960 4990 l0 -220 215 0 215 0 0 220 0 220 -215 0 -215 0 0 -220z"/>
</g>
</svg>
